<svg width="183" height="40" viewBox="0 0 177 34" fill="none" xmlns="http://www.w3.org/2000/svg">
<path d="M1 14C1 6.8203 6.8203 1 14 1C21.1797 1 27 6.8203 27 14V30.9091C27 32.0639 26.0639 33 24.9091 33H3.09091C1.93613 33 1 32.0639 1 30.9091L1 14Z" stroke="black" stroke-width="2"/>
<circle cx="7.5" cy="12.5" r="1.5" fill="black"/>
<circle cx="20.5" cy="12.5" r="1.5" fill="black"/>
<path d="M47.434 24.104C46.7407 24.104 46.0993 23.9913 45.51 23.766C44.9293 23.532 44.4223 23.207 43.989 22.791C43.5643 22.3663 43.2307 21.8723 42.988 21.309C42.7453 20.7457 42.624 20.126 42.624 19.45C42.624 18.774 42.7453 18.1543 42.988 17.591C43.2307 17.0277 43.5687 16.538 44.002 16.122C44.4353 15.6973 44.9423 15.3723 45.523 15.147C46.1123 14.913 46.7537 14.796 47.447 14.796C48.149 14.796 48.7947 14.9173 49.384 15.16C49.982 15.394 50.489 15.745 50.905 16.213L50.06 17.032C49.7133 16.668 49.3233 16.3993 48.89 16.226C48.4567 16.044 47.993 15.953 47.499 15.953C46.9877 15.953 46.511 16.0397 46.069 16.213C45.6357 16.3863 45.2587 16.629 44.938 16.941C44.6173 17.253 44.366 17.6257 44.184 18.059C44.0107 18.4837 43.924 18.9473 43.924 19.45C43.924 19.9527 44.0107 20.4207 44.184 20.854C44.366 21.2787 44.6173 21.647 44.938 21.959C45.2587 22.271 45.6357 22.5137 46.069 22.687C46.511 22.8603 46.9877 22.947 47.499 22.947C47.993 22.947 48.4567 22.8603 48.89 22.687C49.3233 22.505 49.7133 22.2277 50.06 21.855L50.905 22.674C50.489 23.142 49.982 23.4973 49.384 23.74C48.7947 23.9827 48.1447 24.104 47.434 24.104ZM51.8157 24L55.9367 14.9H57.2237L61.3577 24H59.9927L56.3137 15.628H56.8337L53.1547 24H51.8157ZM53.5707 21.725L53.9217 20.685H59.0437L59.4207 21.725H53.5707ZM66.0172 24.104C65.3239 24.104 64.6609 24 64.0282 23.792C63.3955 23.5753 62.8972 23.298 62.5332 22.96L63.0142 21.946C63.3609 22.2493 63.8029 22.5007 64.3402 22.7C64.8775 22.8993 65.4365 22.999 66.0172 22.999C66.5459 22.999 66.9749 22.9383 67.3042 22.817C67.6335 22.6957 67.8762 22.531 68.0322 22.323C68.1882 22.1063 68.2662 21.8637 68.2662 21.595C68.2662 21.283 68.1622 21.0317 67.9542 20.841C67.7549 20.6503 67.4905 20.4987 67.1612 20.386C66.8405 20.2647 66.4852 20.1607 66.0952 20.074C65.7052 19.9873 65.3109 19.8877 64.9122 19.775C64.5222 19.6537 64.1625 19.502 63.8332 19.32C63.5125 19.138 63.2525 18.8953 63.0532 18.592C62.8539 18.28 62.7542 17.8813 62.7542 17.396C62.7542 16.928 62.8755 16.499 63.1182 16.109C63.3695 15.7103 63.7509 15.394 64.2622 15.16C64.7822 14.9173 65.4409 14.796 66.2382 14.796C66.7669 14.796 67.2912 14.8653 67.8112 15.004C68.3312 15.1427 68.7819 15.342 69.1632 15.602L68.7342 16.642C68.3442 16.382 67.9325 16.1957 67.4992 16.083C67.0659 15.9617 66.6455 15.901 66.2382 15.901C65.7269 15.901 65.3065 15.966 64.9772 16.096C64.6479 16.226 64.4052 16.3993 64.2492 16.616C64.1019 16.8327 64.0282 17.0753 64.0282 17.344C64.0282 17.6647 64.1279 17.9203 64.3272 18.111C64.5352 18.3017 64.7995 18.4533 65.1202 18.566C65.4495 18.6787 65.8092 18.7827 66.1992 18.878C66.5892 18.9647 66.9792 19.0643 67.3692 19.177C67.7679 19.2897 68.1275 19.437 68.4482 19.619C68.7775 19.801 69.0419 20.0437 69.2412 20.347C69.4405 20.6503 69.5402 21.0403 69.5402 21.517C69.5402 21.9763 69.4145 22.4053 69.1632 22.804C68.9119 23.194 68.5219 23.5103 67.9932 23.753C67.4732 23.987 66.8145 24.104 66.0172 24.104ZM72.0894 24V14.9H75.6384C76.4357 14.9 77.1161 15.0257 77.6794 15.277C78.2427 15.5283 78.6761 15.8923 78.9794 16.369C79.2827 16.8457 79.4344 17.4133 79.4344 18.072C79.4344 18.7307 79.2827 19.2983 78.9794 19.775C78.6761 20.243 78.2427 20.607 77.6794 20.867C77.1161 21.1183 76.4357 21.244 75.6384 21.244H72.8044L73.3894 20.633V24H72.0894ZM73.3894 20.763L72.8044 20.113H75.5994C76.4314 20.113 77.0597 19.9353 77.4844 19.58C77.9177 19.2247 78.1344 18.722 78.1344 18.072C78.1344 17.422 77.9177 16.9193 77.4844 16.564C77.0597 16.2087 76.4314 16.031 75.5994 16.031H72.8044L73.3894 15.381V20.763ZM83.1773 18.826H87.8573V19.931H83.1773V18.826ZM83.2943 22.869H88.5983V24H81.9943V14.9H88.4163V16.031H83.2943V22.869ZM91.3533 24V14.9H94.9023C95.6996 14.9 96.3799 15.0257 96.9433 15.277C97.5066 15.5283 97.9399 15.8923 98.2433 16.369C98.5466 16.8457 98.6983 17.4133 98.6983 18.072C98.6983 18.7307 98.5466 19.2983 98.2433 19.775C97.9399 20.243 97.5066 20.6027 96.9433 20.854C96.3799 21.1053 95.6996 21.231 94.9023 21.231H92.0683L92.6533 20.633V24H91.3533ZM97.4373 24L95.1233 20.698H96.5143L98.8543 24H97.4373ZM92.6533 20.763L92.0683 20.126H94.8633C95.6953 20.126 96.3236 19.9483 96.7483 19.593C97.1816 19.229 97.3983 18.722 97.3983 18.072C97.3983 17.422 97.1816 16.9193 96.7483 16.564C96.3236 16.2087 95.6953 16.031 94.8633 16.031H92.0683L92.6533 15.381V20.763ZM100.773 17.903L101.423 15.264L101.592 16.018C101.34 16.018 101.128 15.94 100.955 15.784C100.79 15.628 100.708 15.42 100.708 15.16C100.708 14.8913 100.79 14.679 100.955 14.523C101.128 14.3583 101.336 14.276 101.579 14.276C101.83 14.276 102.034 14.3627 102.19 14.536C102.346 14.7007 102.424 14.9087 102.424 15.16C102.424 15.238 102.419 15.3203 102.411 15.407C102.402 15.485 102.38 15.576 102.346 15.68C102.32 15.784 102.276 15.9183 102.216 16.083L101.592 17.903H100.773ZM107.823 24.104C107.13 24.104 106.467 24 105.834 23.792C105.201 23.5753 104.703 23.298 104.339 22.96L104.82 21.946C105.167 22.2493 105.609 22.5007 106.146 22.7C106.683 22.8993 107.242 22.999 107.823 22.999C108.352 22.999 108.781 22.9383 109.11 22.817C109.439 22.6957 109.682 22.531 109.838 22.323C109.994 22.1063 110.072 21.8637 110.072 21.595C110.072 21.283 109.968 21.0317 109.76 20.841C109.561 20.6503 109.296 20.4987 108.967 20.386C108.646 20.2647 108.291 20.1607 107.901 20.074C107.511 19.9873 107.117 19.8877 106.718 19.775C106.328 19.6537 105.968 19.502 105.639 19.32C105.318 19.138 105.058 18.8953 104.859 18.592C104.66 18.28 104.56 17.8813 104.56 17.396C104.56 16.928 104.681 16.499 104.924 16.109C105.175 15.7103 105.557 15.394 106.068 15.16C106.588 14.9173 107.247 14.796 108.044 14.796C108.573 14.796 109.097 14.8653 109.617 15.004C110.137 15.1427 110.588 15.342 110.969 15.602L110.54 16.642C110.15 16.382 109.738 16.1957 109.305 16.083C108.872 15.9617 108.451 15.901 108.044 15.901C107.533 15.901 107.112 15.966 106.783 16.096C106.454 16.226 106.211 16.3993 106.055 16.616C105.908 16.8327 105.834 17.0753 105.834 17.344C105.834 17.6647 105.934 17.9203 106.133 18.111C106.341 18.3017 106.605 18.4533 106.926 18.566C107.255 18.6787 107.615 18.7827 108.005 18.878C108.395 18.9647 108.785 19.0643 109.175 19.177C109.574 19.2897 109.933 19.437 110.254 19.619C110.583 19.801 110.848 20.0437 111.047 20.347C111.246 20.6503 111.346 21.0403 111.346 21.517C111.346 21.9763 111.22 22.4053 110.969 22.804C110.718 23.194 110.328 23.5103 109.799 23.753C109.279 23.987 108.62 24.104 107.823 24.104Z" fill="black"/>
<path d="M127.069 24.156C126.341 24.156 125.643 24.0607 124.976 23.87C124.309 23.6707 123.771 23.415 123.364 23.103L124.079 21.517C124.469 21.7943 124.928 22.024 125.457 22.206C125.994 22.3793 126.536 22.466 127.082 22.466C127.498 22.466 127.832 22.427 128.083 22.349C128.343 22.2623 128.534 22.1453 128.655 21.998C128.776 21.8507 128.837 21.6817 128.837 21.491C128.837 21.2483 128.742 21.0577 128.551 20.919C128.36 20.7717 128.109 20.6547 127.797 20.568C127.485 20.4727 127.138 20.386 126.757 20.308C126.384 20.2213 126.007 20.1173 125.626 19.996C125.253 19.8747 124.911 19.7187 124.599 19.528C124.287 19.3373 124.031 19.086 123.832 18.774C123.641 18.462 123.546 18.0633 123.546 17.578C123.546 17.058 123.685 16.5857 123.962 16.161C124.248 15.7277 124.673 15.3853 125.236 15.134C125.808 14.874 126.523 14.744 127.381 14.744C127.953 14.744 128.516 14.8133 129.071 14.952C129.626 15.082 130.115 15.2813 130.54 15.55L129.89 17.149C129.465 16.9063 129.041 16.7287 128.616 16.616C128.191 16.4947 127.775 16.434 127.368 16.434C126.961 16.434 126.627 16.4817 126.367 16.577C126.107 16.6723 125.921 16.798 125.808 16.954C125.695 17.1013 125.639 17.2747 125.639 17.474C125.639 17.708 125.734 17.8987 125.925 18.046C126.116 18.1847 126.367 18.2973 126.679 18.384C126.991 18.4707 127.333 18.5573 127.706 18.644C128.087 18.7307 128.464 18.8303 128.837 18.943C129.218 19.0557 129.565 19.2073 129.877 19.398C130.189 19.5887 130.44 19.84 130.631 20.152C130.83 20.464 130.93 20.8583 130.93 21.335C130.93 21.8463 130.787 22.3143 130.501 22.739C130.215 23.1637 129.786 23.506 129.214 23.766C128.651 24.026 127.936 24.156 127.069 24.156ZM134.777 24V16.616H131.865V14.9H139.795V16.616H136.883V24H134.777ZM145.871 24.156C145.152 24.156 144.485 24.039 143.869 23.805C143.263 23.571 142.734 23.2417 142.283 22.817C141.841 22.3923 141.495 21.894 141.243 21.322C141.001 20.75 140.879 20.126 140.879 19.45C140.879 18.774 141.001 18.15 141.243 17.578C141.495 17.006 141.846 16.5077 142.296 16.083C142.747 15.6583 143.276 15.329 143.882 15.095C144.489 14.861 145.148 14.744 145.858 14.744C146.578 14.744 147.236 14.861 147.834 15.095C148.441 15.329 148.965 15.6583 149.407 16.083C149.858 16.5077 150.209 17.006 150.46 17.578C150.712 18.1413 150.837 18.7653 150.837 19.45C150.837 20.126 150.712 20.7543 150.46 21.335C150.209 21.907 149.858 22.4053 149.407 22.83C148.965 23.246 148.441 23.571 147.834 23.805C147.236 24.039 146.582 24.156 145.871 24.156ZM145.858 22.362C146.266 22.362 146.638 22.2927 146.976 22.154C147.323 22.0153 147.626 21.816 147.886 21.556C148.146 21.296 148.346 20.9883 148.484 20.633C148.632 20.2777 148.705 19.8833 148.705 19.45C148.705 19.0167 148.632 18.6223 148.484 18.267C148.346 17.9117 148.146 17.604 147.886 17.344C147.635 17.084 147.336 16.8847 146.989 16.746C146.643 16.6073 146.266 16.538 145.858 16.538C145.451 16.538 145.074 16.6073 144.727 16.746C144.389 16.8847 144.09 17.084 143.83 17.344C143.57 17.604 143.367 17.9117 143.219 18.267C143.081 18.6223 143.011 19.0167 143.011 19.45C143.011 19.8747 143.081 20.269 143.219 20.633C143.367 20.9883 143.566 21.296 143.817 21.556C144.077 21.816 144.381 22.0153 144.727 22.154C145.074 22.2927 145.451 22.362 145.858 22.362ZM153.07 24V14.9H157.009C157.824 14.9 158.526 15.0343 159.115 15.303C159.704 15.563 160.159 15.94 160.48 16.434C160.801 16.928 160.961 17.5173 160.961 18.202C160.961 18.878 160.801 19.463 160.48 19.957C160.159 20.4423 159.704 20.815 159.115 21.075C158.526 21.335 157.824 21.465 157.009 21.465H154.24L155.176 20.542V24H153.07ZM158.855 24L156.58 20.698H158.829L161.13 24H158.855ZM155.176 20.776L154.24 19.788H156.892C157.542 19.788 158.027 19.6493 158.348 19.372C158.669 19.086 158.829 18.696 158.829 18.202C158.829 17.6993 158.669 17.3093 158.348 17.032C158.027 16.7547 157.542 16.616 156.892 16.616H154.24L155.176 15.615V20.776ZM165.217 18.566H169.598V20.204H165.217V18.566ZM165.373 22.31H170.326V24H163.28V14.9H170.157V16.59H165.373V22.31Z" fill="black"/>
<circle cx="117" cy="19" r="2" fill="black"/>
</svg>
